<mxfile host="app.diagrams.net" modified="2024-05-07T08:20:55.801Z" agent="Mozilla/5.0 (Macintosh; Intel Mac OS X 10_15_7) AppleWebKit/537.36 (KHTML, like Gecko) Chrome/124.0.0.0 Safari/537.36" etag="ZS3zEz677JMwFZkmRh4h" version="24.2.2" type="device">
  <diagram name="Page-1" id="wScq2EJ4G9FeeN71zjn5">
    <mxGraphModel dx="1567" dy="1080" grid="1" gridSize="10" guides="1" tooltips="1" connect="1" arrows="1" fold="1" page="1" pageScale="1" pageWidth="850" pageHeight="1100" math="0" shadow="0">
      <root>
        <mxCell id="0" />
        <mxCell id="1" parent="0" />
        <mxCell id="bplXzxllBsqUlxVleZ7L-20" value="" style="rounded=0;whiteSpace=wrap;html=1;" vertex="1" parent="1">
          <mxGeometry x="80" y="360" width="700" height="240" as="geometry" />
        </mxCell>
        <mxCell id="bplXzxllBsqUlxVleZ7L-1" value="" style="rounded=0;whiteSpace=wrap;html=1;" vertex="1" parent="1">
          <mxGeometry x="80" y="360" width="540" height="240" as="geometry" />
        </mxCell>
        <mxCell id="bplXzxllBsqUlxVleZ7L-3" value="&lt;span style=&quot;font-size: 18px;&quot;&gt;&lt;b&gt;E&lt;/b&gt;&lt;/span&gt;" style="text;html=1;align=center;verticalAlign=middle;whiteSpace=wrap;rounded=0;" vertex="1" parent="1">
          <mxGeometry x="590" y="610" width="60" height="30" as="geometry" />
        </mxCell>
        <mxCell id="bplXzxllBsqUlxVleZ7L-4" value="&lt;span style=&quot;font-size: 18px;&quot;&gt;&lt;b&gt;F&lt;/b&gt;&lt;/span&gt;" style="text;html=1;align=center;verticalAlign=middle;whiteSpace=wrap;rounded=0;" vertex="1" parent="1">
          <mxGeometry x="590" y="320" width="60" height="30" as="geometry" />
        </mxCell>
        <mxCell id="bplXzxllBsqUlxVleZ7L-5" value="&lt;span style=&quot;font-size: 18px;&quot;&gt;&lt;b&gt;A&lt;/b&gt;&lt;/span&gt;" style="text;html=1;align=center;verticalAlign=middle;whiteSpace=wrap;rounded=0;" vertex="1" parent="1">
          <mxGeometry x="50" y="610" width="60" height="30" as="geometry" />
        </mxCell>
        <mxCell id="bplXzxllBsqUlxVleZ7L-15" value="" style="rounded=0;whiteSpace=wrap;html=1;" vertex="1" parent="1">
          <mxGeometry x="80" y="360" width="360" height="240" as="geometry" />
        </mxCell>
        <mxCell id="bplXzxllBsqUlxVleZ7L-17" value="&lt;span style=&quot;font-size: 18px;&quot;&gt;&lt;b&gt;B&lt;/b&gt;&lt;/span&gt;" style="text;html=1;align=center;verticalAlign=middle;whiteSpace=wrap;rounded=0;" vertex="1" parent="1">
          <mxGeometry x="410" y="610" width="60" height="30" as="geometry" />
        </mxCell>
        <mxCell id="bplXzxllBsqUlxVleZ7L-18" value="&lt;span style=&quot;font-size: 18px;&quot;&gt;&lt;b&gt;C&lt;/b&gt;&lt;/span&gt;" style="text;html=1;align=center;verticalAlign=middle;whiteSpace=wrap;rounded=0;" vertex="1" parent="1">
          <mxGeometry x="410" y="320" width="60" height="30" as="geometry" />
        </mxCell>
        <mxCell id="bplXzxllBsqUlxVleZ7L-19" value="&lt;span style=&quot;font-size: 18px;&quot;&gt;&lt;b&gt;D&lt;/b&gt;&lt;/span&gt;" style="text;html=1;align=center;verticalAlign=middle;whiteSpace=wrap;rounded=0;" vertex="1" parent="1">
          <mxGeometry x="50" y="320" width="60" height="30" as="geometry" />
        </mxCell>
        <mxCell id="bplXzxllBsqUlxVleZ7L-21" value="&lt;span style=&quot;font-size: 18px;&quot;&gt;&lt;b&gt;O&lt;/b&gt;&lt;/span&gt;" style="text;html=1;align=center;verticalAlign=middle;whiteSpace=wrap;rounded=0;" vertex="1" parent="1">
          <mxGeometry x="750" y="610" width="60" height="30" as="geometry" />
        </mxCell>
      </root>
    </mxGraphModel>
  </diagram>
</mxfile>
